<?xml version="1.0" encoding="UTF-8"?>
<svg id="Layer_2" data-name="Layer 2" xmlns="http://www.w3.org/2000/svg" xmlns:xlink="http://www.w3.org/1999/xlink" viewBox="0 0 130.81 127.46">
  <defs>
    <style>
      .cls-1 {
        fill: url(#linear-gradient);
      }

      .cls-1, .cls-2, .cls-3, .cls-4 {
        stroke-width: 0px;
      }

      .cls-2 {
        fill: #64717c;
      }

      .cls-3 {
        fill: url(#linear-gradient-2);
      }

      .cls-4 {
        fill: url(#linear-gradient-3);
      }
    </style>
    <linearGradient id="linear-gradient" x1="-562.35" y1="3143.82" x2="-526.67" y2="3111.28" gradientTransform="translate(564 3190.7) scale(1 -1)" gradientUnits="userSpaceOnUse">
      <stop offset="0" stop-color="#4e8bc9"/>
      <stop offset="1" stop-color="#3957a7"/>
    </linearGradient>
    <linearGradient id="linear-gradient-2" x1="-470.14" y1="3186.73" x2="-441.31" y2="3159.04" gradientTransform="translate(564 3190.7) scale(1 -1)" gradientUnits="userSpaceOnUse">
      <stop offset="0" stop-color="#4b78bc"/>
      <stop offset="1" stop-color="#2e82c5"/>
    </linearGradient>
    <linearGradient id="linear-gradient-3" x1="-468.56" y1="3099.26" x2="-435.16" y2="3064.44" gradientTransform="translate(564 3190.7) scale(1 -1)" gradientUnits="userSpaceOnUse">
      <stop offset="0" stop-color="#4858a7"/>
      <stop offset="1" stop-color="#394ca0"/>
    </linearGradient>
  </defs>
  <g id="Layer_1-2" data-name="Layer 1">
    <path class="cls-2" d="m115.81,24.46l-10.24-8.67-34.89,41.23H23.48v13.42h47.2l34.89,41.23,10.24-8.67-33.23-39.27,33.23-39.27Z"/>
    <path class="cls-1" d="m20.12,83.85c11.11,0,20.12-9.01,20.12-20.12s-9.01-20.12-20.12-20.12S0,52.61,0,63.73s9.01,20.12,20.12,20.12Z"/>
    <path class="cls-3" d="m110.69,40.25c11.11,0,20.12-9.01,20.12-20.12S121.8,0,110.69,0s-20.12,9.01-20.12,20.13,9.01,20.12,20.12,20.12Z"/>
    <path class="cls-4" d="m110.69,127.46c11.11,0,20.12-9.01,20.12-20.12s-9.01-20.12-20.12-20.12-20.12,9.01-20.12,20.12,9.01,20.12,20.12,20.12Z"/>
  </g>
</svg>